<svg width="410" height="442" viewBox="0 0 410 442" fill="none" xmlns="http://www.w3.org/2000/svg">
<path d="M300.833 114.431C303.268 115.839 306.38 115.004 307.785 112.565C309.191 110.127 308.356 107.008 305.922 105.6C303.487 104.192 300.375 105.027 298.969 107.466C297.564 109.904 298.399 113.023 300.833 114.431Z" fill="#29292E"/>
<path d="M85.5628 164.685C87.9973 166.093 91.11 165.258 92.5152 162.819C93.9205 160.381 93.0861 157.262 90.6516 155.854C88.2171 154.446 85.1044 155.281 83.6991 157.719C82.2939 160.158 83.1283 163.277 85.5628 164.685Z" fill="#29292E"/>
<path d="M104.157 177.608C105.189 178.205 106.509 177.851 107.104 176.817C107.7 175.784 107.346 174.462 106.314 173.865C105.283 173.268 103.963 173.622 103.368 174.656C102.772 175.689 103.126 177.011 104.157 177.608Z" fill="#29292E"/>
<path d="M330.731 341.583C331.763 342.18 333.083 341.826 333.678 340.792C334.274 339.758 333.92 338.437 332.888 337.84C331.857 337.243 330.537 337.597 329.942 338.63C329.346 339.664 329.7 340.986 330.731 341.583Z" fill="#29292E"/>
<path d="M291.896 81.7661C292.979 82.3913 294.364 82.0197 294.99 80.936C295.616 79.8524 295.245 78.4671 294.162 77.842C293.079 77.2168 291.694 77.5884 291.069 78.6721C290.443 79.7557 290.814 81.141 291.896 81.7661Z" fill="white"/>
<path d="M328.306 281.92C328.845 282.233 329.535 282.047 329.847 281.507C330.158 280.966 329.973 280.275 329.434 279.963C328.894 279.651 328.204 279.836 327.892 280.376C327.581 280.917 327.766 281.608 328.306 281.92Z" fill="white"/>
<path d="M93.9672 292.191C94.5069 292.503 95.197 292.318 95.5085 291.777C95.82 291.237 95.635 290.545 95.0953 290.233C94.5557 289.921 93.8656 290.106 93.5541 290.647C93.2426 291.187 93.4276 291.879 93.9672 292.191Z" fill="white"/>
<path d="M69.1001 172.389C69.9126 172.859 70.9514 172.581 71.4204 171.767C71.8894 170.953 71.6109 169.912 70.7984 169.442C69.9859 168.972 68.9471 169.251 68.4781 170.065C68.0091 170.879 68.2876 171.919 69.1001 172.389Z" fill="white"/>
<path d="M274.769 112.664C275.309 112.976 275.999 112.791 276.31 112.25C276.622 111.71 276.437 111.018 275.897 110.706C275.358 110.394 274.668 110.579 274.356 111.12C274.044 111.66 274.229 112.352 274.769 112.664Z" fill="white"/>
<path d="M304.655 106.381L309.571 109.86L303.995 112.133L300.524 117.061L298.256 111.471L293.34 107.986L298.917 105.719L302.394 100.791L304.655 106.381Z" fill="white"/>
<path d="M312.207 298.165C313.29 298.791 314.674 298.42 315.298 297.336C315.923 296.252 315.552 294.865 314.47 294.239C313.388 293.613 312.004 293.985 311.379 295.069C310.754 296.153 311.125 297.539 312.207 298.165Z" fill="white"/>
<path d="M329.408 299.661C330.49 300.287 331.874 299.915 332.499 298.831C333.124 297.747 332.753 296.361 331.67 295.735C330.588 295.109 329.204 295.48 328.58 296.564C327.955 297.648 328.326 299.035 329.408 299.661Z" fill="white"/>
<path d="M353.375 264.727L350.927 271.385L346.653 265.721L340.006 263.268L345.655 258.992L348.103 252.333L352.376 257.989L359.023 260.443L353.375 264.727Z" fill="white"/>
<path d="M77.6392 138.527L72.3227 138.163L75.4956 133.874L75.8586 128.548L80.137 131.733L85.4535 132.098L82.2806 136.386L81.9176 141.712L77.6392 138.527Z" fill="white"/>
<path d="M97.5276 256.742L98.5494 262.688L93.0041 260.34L87.0725 261.364L89.409 255.806L88.3934 249.86L93.9387 252.208L99.8703 251.184L97.5276 256.742Z" fill="white"/>
<path d="M120.207 271.286L120.898 274.24L118.045 273.228L115.104 273.922L116.107 271.067L115.415 268.119L118.269 269.125L121.21 268.432L120.207 271.286Z" fill="white"/>
<path d="M159.612 412.124C173.512 414.12 187.443 415.979 201.454 417.024C213.623 417.934 225.85 418.033 238.046 418.297C249.12 418.534 260.243 418.485 271.264 417.264C276.083 416.729 280.966 415.959 285.73 414.779L285.732 405.968C247.837 405.972 217.117 375.23 217.121 337.307L216.83 256.636L193.454 256.639L193.74 337.438C193.661 375.303 162.969 405.973 125.113 405.981L125.148 407.325C136.66 408.76 148.132 410.482 159.612 412.124Z" fill="url(#paint0_radial_8585_31811)"/>
<path d="M409.913 245.625C395.762 390.513 255.29 417.548 255.3 339.221L255.482 290.769L241.492 290.771C241.492 290.771 241.271 366.29 241.197 367.266C239.623 389.555 222.284 400.689 204.982 400.652C187.675 400.689 170.348 389.558 168.775 367.274C168.706 366.302 168.498 290.779 168.498 290.779L154.515 290.781L154.687 339.233C154.678 417.56 14.26 390.562 0.138504 245.672H0C5.22539 354.598 94.954 441.291 204.891 441.278C204.917 441.278 204.951 441.278 204.978 441.278C205.004 441.278 205.038 441.278 205.064 441.278C315.001 441.266 404.75 354.552 410 245.625H409.913Z" fill="url(#paint1_radial_8585_31811)"/>
<path d="M244.017 72.7987C246.827 72.7987 249.106 70.516 249.106 67.7001C249.106 64.8843 246.827 62.6016 244.017 62.6016C241.205 62.6016 238.927 64.8843 238.927 67.7001C238.927 70.516 241.205 72.7987 244.017 72.7987Z" fill="#29292E"/>
<path d="M220.038 152.156L220.036 136.881L224.509 132.022L205.273 132.02L205.189 132.016L185.948 132.018L190.427 136.874L190.423 152.154L185.951 156.661L205.192 163.751V163.778L205.232 163.765L205.271 163.778L205.275 163.747L224.516 156.67L220.038 152.156Z" fill="#F1F1F1"/>
<path d="M220.038 152.156L220.036 136.881L224.509 132.022L205.273 132.02L205.189 132.016L185.948 132.018L190.427 136.874L190.423 152.154L185.951 156.661L205.192 163.751V163.778L205.232 163.765L205.271 163.778L205.275 163.747L224.516 156.67L220.038 152.156Z" fill="#E5E5E5"/>
<path d="M220.038 143.938L220.037 136.881L224.515 132.025L215.646 132.024L209.713 142.751C213.16 143.067 216.603 143.511 220.038 143.938Z" fill="#F1F1F1"/>
<path d="M220.038 145.168C216.389 144.711 212.732 144.235 209.064 143.91L208.709 144.556L202.692 150.839L198.737 156.657L201.746 162.476L205.189 163.747V163.773L205.229 163.759L205.268 163.773V163.747L224.508 156.668L220.03 152.155L220.038 145.168Z" fill="white"/>
<path d="M241.435 278.32L211.725 278.318C211.418 278.318 211.172 278.071 211.172 277.764V274.354C211.172 274.046 211.417 273.8 211.724 273.8L241.435 273.802C241.742 273.802 241.987 274.049 241.987 274.356L241.988 277.766C241.984 278.069 241.738 278.316 241.435 278.32Z" fill="#464650"/>
<path d="M241.43 258.795L211.719 258.792C211.412 258.792 211.167 258.546 211.167 258.239L211.166 254.829C211.166 254.521 211.412 254.275 211.719 254.275L241.429 254.277C241.736 254.277 241.982 254.524 241.982 254.831V258.241C241.982 258.549 241.736 258.795 241.43 258.795Z" fill="#464650"/>
<path d="M235.492 278.903L214.482 257.852C214.267 257.637 214.267 257.286 214.481 257.071L216.89 254.658C217.105 254.443 217.455 254.443 217.67 254.658L238.681 275.709C238.896 275.924 238.896 276.276 238.681 276.491L236.273 278.903C236.054 279.124 235.708 279.118 235.492 278.903Z" fill="#464650"/>
<path d="M241.429 207.184L211.719 207.182C211.411 207.181 211.166 206.935 211.166 206.628L211.165 203.218C211.165 202.909 211.411 202.664 211.718 202.664L241.428 202.666C241.735 202.666 241.981 202.913 241.981 203.22V206.63C241.981 206.938 241.736 207.184 241.429 207.184Z" fill="#464650"/>
<path d="M169.054 278.309L198.764 278.311C199.071 278.311 199.317 278.066 199.317 277.758L199.316 274.348C199.316 274.04 199.071 273.795 198.763 273.795L169.053 273.792C168.746 273.792 168.501 274.038 168.501 274.345V277.756C168.501 278.063 168.747 278.309 169.054 278.309Z" fill="#464650"/>
<path d="M169.052 258.789L198.763 258.792C199.07 258.792 199.315 258.546 199.315 258.239V254.829C199.315 254.521 199.069 254.275 198.762 254.275L169.052 254.272C168.745 254.272 168.499 254.518 168.499 254.826L168.5 258.236C168.5 258.544 168.745 258.789 169.052 258.789Z" fill="#464650"/>
<path d="M174.997 278.903L196.003 257.856C196.218 257.64 196.218 257.288 196.003 257.073L193.595 254.661C193.38 254.445 193.029 254.445 192.815 254.66L171.808 275.708C171.593 275.923 171.593 276.274 171.808 276.49L174.216 278.903C174.431 279.118 174.782 279.118 174.997 278.903Z" fill="#464650"/>
<path d="M169.043 207.177L198.753 207.18C199.06 207.18 199.306 206.934 199.306 206.626V203.216C199.306 202.909 199.06 202.662 198.753 202.662L169.043 202.66C168.735 202.66 168.49 202.906 168.49 203.214V206.624C168.495 206.927 168.74 207.173 169.043 207.177Z" fill="#464650"/>
<path d="M145.43 215.148L178.026 215.15C179.649 215.15 180.965 213.832 180.965 212.206L180.961 172.832C180.961 171.207 179.645 169.888 178.022 169.888L145.426 169.886C143.803 169.885 142.487 171.204 142.487 172.829L142.491 212.203C142.491 213.829 143.807 215.147 145.43 215.148Z" fill="#F1F1F1"/>
<path d="M232.271 214.275L264.991 214.279C266.613 214.279 267.929 212.961 267.929 211.334L267.926 171.961C267.925 170.335 266.61 169.017 264.987 169.017L232.268 169.013C230.645 169.013 229.329 170.332 229.329 171.957L229.333 211.331C229.333 212.957 230.649 214.275 232.271 214.275Z" fill="#F1F1F1"/>
<path d="M222.724 78.0494L187.681 78.0464C186.699 78.0463 185.905 77.2508 185.905 76.2665L185.901 36.7612C185.901 35.7768 186.695 34.9816 187.677 34.9817L222.721 34.9847C223.703 34.9848 224.497 35.7802 224.497 36.7646L224.501 76.2698C224.496 77.2586 223.703 78.0539 222.724 78.0494Z" fill="#F1F1F1"/>
<path d="M216.633 167.949L193.832 167.947L193.832 182.849L216.633 182.851L216.633 167.949Z" fill="#F1F1F1"/>
<path d="M147.489 291.872L150.748 297.686L163.099 297.688L163.097 278.309L147.489 291.872Z" fill="#464650"/>
<path d="M175.806 291.874L172.548 297.687L160.196 297.686L160.195 278.307L175.806 291.874Z" fill="#464650"/>
<path d="M147.489 291.872L150.748 297.686L163.099 297.688L163.097 278.309L147.489 291.872Z" fill="#464650"/>
<path d="M175.806 291.874L172.548 297.687L160.196 297.686L160.195 278.307L175.806 291.874Z" fill="#464650"/>
<path d="M172.069 299.785L151.288 299.783C151.008 299.783 150.779 299.554 150.779 299.273V297.699L172.578 297.702V299.275C172.578 299.556 172.35 299.785 172.069 299.785Z" fill="#00B37E"/>
<path d="M178.29 227.551L180.399 221.395C180.806 220.213 181.013 218.969 181.008 217.717L181.005 182.667C181.004 179.759 178.653 177.403 175.75 177.402L147.618 177.4C144.715 177.4 142.365 179.755 142.365 182.664L142.368 217.564C142.368 218.917 142.605 220.254 143.061 221.528L145.013 226.929C145.592 228.528 145.886 230.22 145.886 231.925L145.89 265.595C145.89 267.221 145.623 268.833 145.092 270.367L143.228 275.802C142.662 277.459 142.373 279.2 142.373 280.949V281.08C142.374 284.534 143.26 287.927 144.949 290.937C146.107 293.002 148.287 294.281 150.655 294.282L159.716 294.283H163.681L172.743 294.284C175.111 294.284 177.291 293.005 178.449 290.94C180.137 287.93 181.018 284.533 181.022 281.083V278.306L178.381 270.985C177.802 269.386 177.508 267.693 177.508 265.988L177.504 232.319C177.496 230.702 177.763 229.09 178.29 227.551Z" fill="#F1F1F1"/>
<path d="M164.304 290.942C162.616 287.932 161.734 284.536 161.729 281.086V280.954C161.729 279.205 162.018 277.465 162.584 275.809L164.448 270.373C164.974 268.834 165.241 267.222 165.245 265.601L165.242 231.931C165.242 230.226 164.948 228.534 164.369 226.934L162.417 221.534C161.957 220.263 161.724 218.923 161.723 217.57L161.721 182.67C161.721 179.761 164.071 177.406 166.975 177.406L147.615 177.404C144.711 177.404 142.361 179.759 142.361 182.668L142.364 217.568C142.364 218.922 142.601 220.257 143.058 221.532L145.01 226.933C145.589 228.532 145.883 230.224 145.883 231.929L145.885 265.599C145.886 267.224 145.618 268.838 145.088 270.371L143.224 275.807C142.659 277.464 142.37 279.203 142.37 280.952V281.084C142.37 284.538 143.256 287.931 144.945 290.941C146.103 293.007 148.283 294.285 150.652 294.285L159.713 294.286L163.678 294.287H170.011C167.647 294.291 165.462 293.008 164.304 290.942Z" fill="white"/>
<path d="M161.683 152.146C164.508 152.146 167.065 153.056 168.219 154.467L179.838 168.684C180.61 169.624 181.005 170.644 181.005 171.68C181.005 172.955 179.119 173.992 176.795 173.992L146.566 173.989C144.243 173.988 142.361 172.956 142.356 171.677C142.356 170.649 142.755 169.625 143.522 168.68L155.139 154.465C156.302 153.055 158.859 152.146 161.683 152.146Z" fill="white"/>
<path d="M185.919 292.28L190.367 300.217L207.226 300.218L207.224 273.773L185.919 292.28Z" fill="#464650"/>
<path d="M224.568 292.283L220.121 300.219L203.261 300.218L203.259 273.772L224.568 292.283Z" fill="#464650"/>
<path d="M221.983 180.574C220.825 178.509 218.645 177.23 216.277 177.23L207.215 177.229H203.251L194.189 177.228C191.82 177.228 189.641 178.506 188.483 180.572C186.795 183.581 185.914 186.978 185.91 190.428L185.918 287.016V292.281L224.567 292.284V287.019L224.559 190.432C224.558 186.978 223.672 183.585 221.983 180.574Z" fill="#E5E5E5"/>
<path d="M185.919 292.28L190.367 300.217L207.226 300.218L207.224 273.773L185.919 292.28Z" fill="#464650"/>
<path d="M224.568 292.283L220.121 300.219L203.261 300.218L203.259 273.772L224.568 292.283Z" fill="#464650"/>
<path d="M221.983 180.574C220.825 178.509 218.645 177.23 216.277 177.23L207.215 177.229H203.251L194.189 177.228C191.82 177.228 189.641 178.506 188.483 180.572C186.795 183.581 185.914 186.978 185.91 190.428L185.918 287.016V292.281L224.567 292.284V287.019L224.559 190.432C224.558 186.978 223.672 183.585 221.983 180.574Z" fill="#F1F1F1"/>
<path d="M203.209 190.429C203.208 186.975 204.094 183.583 205.782 180.573C206.94 178.508 209.119 177.229 211.488 177.229H207.225H203.26L194.199 177.228C191.83 177.227 189.651 178.506 188.492 180.571C186.804 183.581 185.923 186.978 185.919 190.427L185.928 287.016V292.28L203.217 292.281V287.017L203.209 190.429Z" fill="white"/>
<path d="M219.472 303.085L191.105 303.082C190.718 303.082 190.411 302.774 190.411 302.388V300.243L220.166 300.246V302.39C220.161 302.772 219.849 303.085 219.472 303.085Z" fill="#00B37E"/>
<path d="M205.258 2.62678e-08C202.442 -0.000245599 199.889 1.72212 198.745 4.39818L187.164 31.3478C186.397 33.1362 185.998 35.0653 186.002 37.0208C186.002 39.4377 187.88 41.3977 190.195 41.3979L220.327 41.4005C222.643 41.4008 224.519 39.441 224.519 37.0241C224.519 35.0643 224.12 33.1351 223.357 31.3509L211.771 4.39933C210.626 1.72307 208.074 0.000245651 205.258 2.62678e-08Z" fill="white"/>
<path d="M224.532 282.46L185.927 282.457L185.927 286.968L224.532 286.972L224.532 282.46Z" fill="#464650"/>
<path d="M180.987 188.545L142.383 188.542V193.054L180.988 193.057L180.987 188.545Z" fill="#464650"/>
<path d="M185.943 112.73L185.945 132.013L224.594 132.016L224.592 112.673C224.592 111.424 224.202 110.207 223.473 109.197L220.104 104.52L223.434 99.99C224.183 98.9668 224.587 97.7361 224.587 96.4707L224.582 48.5808C224.582 45.6717 222.231 43.3162 219.328 43.3159L191.196 43.3135C188.293 43.3132 185.942 45.6683 185.942 48.5775L185.946 96.5461C185.946 97.7946 186.337 99.0117 187.065 100.022L190.42 104.685L187.097 109.22C186.351 110.23 185.948 111.469 185.943 112.73Z" fill="#F1F1F1"/>
<path d="M185.951 156.662V159.931C185.952 163.385 186.838 166.777 188.527 169.787C189.685 171.853 191.865 173.132 194.233 173.132L203.295 173.133H207.259L216.321 173.134C218.69 173.135 220.869 171.856 222.027 169.791C223.715 166.781 224.596 163.383 224.6 159.934V156.665L185.951 156.662Z" fill="#F1F1F1"/>
<path d="M198.732 112.732C198.732 111.467 199.136 110.236 199.881 109.216L203.205 104.682L199.85 100.019C199.121 99.0084 198.731 97.7913 198.731 96.5428L198.726 48.5744C198.726 45.6653 201.077 43.3102 203.98 43.3104L191.191 43.3093C188.288 43.3091 185.937 45.6642 185.938 48.5732L185.941 96.542C185.942 97.7904 186.332 99.0075 187.06 100.018L190.416 104.681L187.092 109.215C186.346 110.235 185.943 111.465 185.943 112.731L185.945 132.014L198.734 132.014L198.732 112.732Z" fill="white"/>
<path d="M201.312 169.785C199.624 166.775 198.741 163.377 198.737 159.928L198.736 156.658L185.947 156.657V159.927C185.947 163.381 186.834 166.773 188.522 169.783C189.68 171.849 191.861 173.128 194.229 173.128L203.291 173.129H207.009C204.65 173.138 202.466 171.854 201.312 169.785Z" fill="white"/>
<path d="M250.247 280.839L247.343 280.838L236.388 290.355C235.37 291.243 235.111 292.724 235.769 293.902L237.897 297.695L247.345 297.695H250.248L259.695 297.696L261.822 293.904C262.48 292.726 262.22 291.246 261.203 290.358L250.247 280.839Z" fill="#464650"/>
<path d="M259.217 299.792L238.436 299.79C238.156 299.79 237.928 299.562 237.928 299.28L237.927 297.707L259.726 297.709V299.282C259.726 299.564 259.498 299.792 259.217 299.792Z" fill="#00B37E"/>
<path d="M261.103 290.362L261.155 290.318L250.251 280.843H249.181L256.23 289.654C256.59 290.102 257.129 290.361 257.7 290.361L261.103 290.362Z" fill="#6B6B76"/>
<path d="M252.621 287.619L249.177 280.838H248.317L244.875 287.618C244.239 288.871 245.147 290.361 246.55 290.361L250.937 290.361C252.344 290.356 253.256 288.872 252.621 287.619Z" fill="#6B6B76"/>
<path d="M248.317 280.838H247.343L236.388 290.355H239.8C240.371 290.355 240.91 290.096 241.269 289.648L248.317 280.838Z" fill="#6B6B76"/>
<path d="M257.786 282.505L239.804 282.503C239.594 282.503 239.418 282.327 239.418 282.116V279.716C239.418 279.505 239.593 279.33 239.803 279.33L257.786 279.332C257.996 279.332 258.172 279.507 258.172 279.718V282.118C258.172 282.328 257.996 282.505 257.786 282.505Z" fill="#464650"/>
<path d="M224.501 132.057L185.902 132.053L185.904 157.148L224.503 157.151L224.501 132.057Z" fill="#464650"/>
<path d="M181.005 171.68C181.005 170.652 180.606 169.628 179.838 168.684L171.588 158.589C170.03 156.686 167.127 156.686 165.569 158.588L157.294 168.717C156.522 169.657 156.128 170.677 156.128 171.713C156.128 172.847 157.628 173.797 159.606 173.986L176.808 173.988C179.119 173.992 181.005 172.955 181.005 171.68Z" fill="#F1F1F1"/>
<path d="M224.361 34.8539C224.177 33.6498 223.843 32.4721 223.361 31.3471L212.688 6.52244C212.073 5.08984 210.678 4.13173 209.126 4.1228C209.117 4.1228 209.108 4.12282 209.091 4.12282C206.837 4.12262 204.793 5.50225 203.872 7.64664L194.598 29.2265C193.984 30.659 193.668 32.2058 193.668 33.7702C193.669 35.7037 195.172 37.2726 197.028 37.2772L221.16 37.2793C222.659 37.2794 223.922 36.26 224.361 34.8539Z" fill="#F1F1F1"/>
<path d="M233.998 221.702L263.61 221.704L263.605 171.926L233.994 171.924L233.998 221.702Z" fill="#F1F1F1"/>
<path d="M265.361 227.558L267.47 221.402C267.878 220.219 268.084 218.976 268.079 217.723L268.076 182.674C268.076 179.765 265.725 177.41 262.822 177.41L234.69 177.407C231.787 177.407 229.436 179.762 229.436 182.671L229.439 217.571C229.439 218.924 229.676 220.26 230.132 221.535L232.084 226.935C232.663 228.535 232.958 230.227 232.958 231.932L232.961 265.602C232.961 267.227 232.694 268.841 232.163 270.374L230.3 275.81C229.734 277.466 229.444 279.206 229.444 280.955V281.087C229.445 284.541 230.331 287.933 232.02 290.943C233.178 293.009 235.358 294.288 237.726 294.288L246.788 294.289L250.752 294.29H259.814C262.183 294.291 264.362 293.012 265.52 290.947C267.208 287.937 268.089 284.54 268.093 281.09V278.313L265.452 270.992C264.873 269.392 264.579 267.7 264.579 265.996L264.577 232.326C264.567 230.708 264.834 229.096 265.361 227.558Z" fill="#F1F1F1"/>
<path d="M251.379 290.954C249.691 287.944 248.808 284.547 248.804 281.097V280.966C248.804 279.217 249.093 277.476 249.659 275.82L251.523 270.384C252.048 268.847 252.315 267.234 252.32 265.612L252.317 231.943C252.317 230.238 252.023 228.545 251.444 226.946L249.492 221.545C249.031 220.275 248.799 218.935 248.798 217.581L248.795 182.681C248.795 179.773 251.145 177.417 254.049 177.417L234.69 177.416C231.786 177.416 229.436 179.771 229.436 182.68L229.438 217.579C229.439 218.933 229.676 220.269 230.132 221.543L232.084 226.945C232.663 228.544 232.958 230.236 232.958 231.941L232.96 265.61C232.961 267.236 232.693 268.849 232.163 270.383L230.299 275.818C229.733 277.475 229.444 279.215 229.444 280.964V281.096C229.444 284.55 230.331 287.943 232.02 290.953C233.177 293.018 235.358 294.297 237.726 294.298H246.788L250.752 294.298H257.086C254.717 294.298 252.537 293.019 251.379 290.954Z" fill="white"/>
<path d="M248.752 152.154C251.577 152.154 254.134 153.064 255.288 154.475L266.907 168.691C267.68 169.632 268.074 170.651 268.074 171.689C268.074 172.962 266.188 174 263.864 173.999L233.636 173.997C231.311 173.997 229.43 172.964 229.425 171.685C229.425 170.657 229.824 169.633 230.592 168.689L242.209 154.474C243.371 153.063 245.932 152.158 248.752 152.154Z" fill="white"/>
<path d="M268.075 171.724C268.075 170.695 267.675 169.671 266.907 168.727L258.656 158.633C257.099 156.729 254.196 156.729 252.639 158.632L244.364 168.76C243.592 169.7 243.197 170.72 243.197 171.757C243.197 172.891 244.698 173.84 246.675 174.029L263.877 174.031C266.193 174.031 268.075 172.998 268.075 171.724Z" fill="white"/>
<path d="M268.11 171.724C268.11 170.695 267.71 169.671 266.943 168.726L258.692 158.632C257.135 156.73 254.232 156.729 252.675 158.632L244.399 168.76C243.628 169.7 243.233 170.719 243.233 171.757C243.233 172.89 244.733 173.839 246.711 174.029L263.913 174.03C266.224 174.035 268.11 172.998 268.11 171.724Z" fill="#F1F1F1"/>
<path d="M163.955 205.217L163.956 219.71C163.956 220.053 163.68 220.329 163.338 220.329H160.092C159.75 220.329 159.473 220.052 159.473 219.709L159.473 205.217C159.473 204.874 159.748 204.597 160.091 204.597H163.336C163.678 204.597 163.955 204.874 163.955 205.217Z" fill="#CBCBCB"/>
<path d="M252.842 190.047L252.844 214.955C252.844 215.297 252.567 215.574 252.226 215.574H248.839C248.498 215.574 248.221 215.297 248.221 214.954L248.219 190.046C248.219 189.704 248.495 189.427 248.838 189.427H252.223C252.561 189.423 252.842 189.704 252.842 190.047Z" fill="#CBCBCB"/>
<path d="M199.79 76.8429L205.374 82.1959L211.167 76.834L211.169 80.5273L205.376 85.6889L199.793 80.5188L199.79 76.8429Z" fill="#00B37E"/>
<path d="M199.785 70.1295L199.782 66.4536L211.159 72.4453L211.162 75.956L199.785 70.1295Z" fill="#00B37E"/>
<path d="M199.78 61.8342L205.356 56.6677L211.157 61.8774L211.159 65.536L205.358 60.1654L199.782 65.5101L199.78 61.8342Z" fill="#00B37E"/>
<path d="M195.647 151.675C195.31 152.013 194.845 152.224 194.332 152.219C193.306 152.219 192.472 151.384 192.472 150.356L192.471 138.641C192.471 137.612 193.304 136.778 194.33 136.778C195.357 136.778 196.19 137.613 196.19 138.641L196.192 150.357C196.196 150.871 195.986 151.337 195.647 151.675Z" fill="#00B37E"/>
<path d="M229.422 182.508C229.422 182.508 229.295 171.553 229.421 171.522C229.549 171.491 236.566 167.098 236.566 167.098L233.496 172.81L234.159 173.834C234.159 173.834 237.005 173.689 237.444 175.008C237.883 176.326 235.606 178.272 233.712 177.816C231.821 177.354 233.936 185.554 233.936 185.554C233.936 185.554 231.743 186.872 231.304 186.432C230.866 185.994 229.422 182.508 229.422 182.508Z" fill="white"/>
<path d="M186.002 37.0207L185.942 51.5309L192.038 48.1654L197.301 45.5292L191.195 43.3139C191.195 43.3139 195.985 44.2108 195.985 42.453C195.985 40.6953 191.16 39.3766 191.16 39.3766L188.089 36.3003L186.002 37.0207Z" fill="white"/>
<defs>
<radialGradient id="paint0_radial_8585_31811" cx="0" cy="0" r="1" gradientUnits="userSpaceOnUse" gradientTransform="translate(207.281 295.231) rotate(90) scale(96.7252 96.652)">
<stop offset="0.1797" stop-color="#14D89E"/>
<stop offset="1" stop-color="#14D89E" stop-opacity="0"/>
</radialGradient>
<radialGradient id="paint1_radial_8585_31811" cx="0" cy="0" r="1" gradientUnits="userSpaceOnUse" gradientTransform="translate(204.562 295.018) rotate(-0.432242) scale(194.072 194.589)">
<stop offset="0.1797" stop-color="#14D89E"/>
<stop offset="1" stop-color="#14D89E" stop-opacity="0"/>
</radialGradient>
</defs>
</svg>
